<?xml version="1.0" encoding="UTF-8" standalone="no"?>
<svg
   width="50mm"
   height="50mm"
   viewBox="0 0 50.000001 50"
   version="1.1"
   id="svg8"
   sodipodi:docname="warning-danger.svg"
   inkscape:version="1.2.2 (732a01da63, 2022-12-09)"
   xmlns:inkscape="http://www.inkscape.org/namespaces/inkscape"
   xmlns:sodipodi="http://sodipodi.sourceforge.net/DTD/sodipodi-0.dtd"
   xmlns="http://www.w3.org/2000/svg"
   xmlns:svg="http://www.w3.org/2000/svg"
   xmlns:rdf="http://www.w3.org/1999/02/22-rdf-syntax-ns#"
   xmlns:cc="http://creativecommons.org/ns#"
   xmlns:dc="http://purl.org/dc/elements/1.1/">
  <defs
     id="defs2" />
  <sodipodi:namedview
     id="base"
     pagecolor="#888888"
     bordercolor="#666666"
     borderopacity="1.0"
     inkscape:pageopacity="1"
     inkscape:pageshadow="2"
     inkscape:zoom="0.70000001"
     inkscape:cx="-14.285714"
     inkscape:cy="49.285714"
     inkscape:document-units="mm"
     inkscape:current-layer="layer1"
     inkscape:document-rotation="0"
     showgrid="true"
     inkscape:window-width="1920"
     inkscape:window-height="1013"
     inkscape:window-x="-9"
     inkscape:window-y="-9"
     inkscape:window-maximized="1"
     fit-margin-top="0"
     fit-margin-left="0"
     fit-margin-right="0"
     fit-margin-bottom="0"
     inkscape:pagecheckerboard="0"
     inkscape:showpageshadow="0"
     inkscape:deskcolor="#888888">
    <inkscape:grid
       type="xygrid"
       id="grid833"
       originx="-34.565763"
       originy="-18.666666" />
  </sodipodi:namedview>
  <metadata
     id="metadata5">
    <rdf:RDF>
      <cc:Work
         rdf:about="">
        <dc:format>image/svg+xml</dc:format>
        <dc:type
           rdf:resource="http://purl.org/dc/dcmitype/StillImage" />
      </cc:Work>
    </rdf:RDF>
  </metadata>
  <g
     inkscape:label="Calque 1"
     inkscape:groupmode="layer"
     id="layer1"
     transform="translate(-34.565764,-18.666667)">
    <g
       aria-label="i"
       id="text9594"
       style="font-size:38.8056px;line-height:1.25;stroke-width:0.264583"
       transform="matrix(1,0,0,-1,-10e-7,90.951471)">
      <path
         d="m 62.152173,39.820215 v 14.950009 q 0,1.55374 -0.738974,2.349558 -0.738973,0.795818 -1.875856,0.795818 -1.136883,0 -1.856909,-0.814766 -0.701077,-0.814766 -0.701077,-2.33061 V 39.971799 q 0,-1.534791 0.701077,-2.311661 0.720026,-0.77687 1.856909,-0.77687 1.136883,0 1.875856,0.77687 0.738974,0.77687 0.738974,2.160077 z m -2.557986,-5.343349 q -1.080039,0 -1.856909,-0.663182 -0.757921,-0.663181 -0.757921,-1.875856 0,-1.098987 0.776869,-1.800065 0.795818,-0.720025 1.837961,-0.720025 1.004246,0 1.781116,0.644233 0.77687,0.644234 0.77687,1.875857 0,1.193727 -0.757922,1.875856 -0.757921,0.663182 -1.800064,0.663182 z"
         style="font-family:'Arial Rounded MT Bold';-inkscape-font-specification:'Arial Rounded MT Bold, '"
         id="path292" />
    </g>
    <path
       style="fill:none;stroke:#000000;stroke-width:5;stroke-linecap:round;stroke-linejoin:round;stroke-dasharray:none;stroke-opacity:1"
       d="M 37.076181,66.145833 H 82.055348 L 59.565764,21.166668 Z"
       id="path346"
       sodipodi:nodetypes="cccc" />
  </g>
</svg>
